{"accessors" : [{"bufferView" : 0, "byteOffset" : 0, "componentType" : 5123, "count" : 372, "type" : "SCALAR", "max" : [363], "min" : [0]}, {"bufferView" : 1, "byteOffset" : 0, "componentType" : 5126, "count" : 364, "type" : "VEC3", "max" : [0.02500000037252903, 0.0005000000237487257, 0.02500000037252903], "min" : [-0.02500000037252903, -0.0005000000237487257, -0.02500000037252903], "name" : "POSITION"}, {"bufferView" : 1, "byteOffset" : 12, "componentType" : 5126, "count" : 364, "type" : "VEC3", "max" : [1.0000044107437134, 1.0000044107437134, 1.0000044107437134], "min" : [-1.0000044107437134, -1.0000044107437134, -1.0000044107437134], "name" : "NORMAL"}, {"bufferView" : 1, "byteOffset" : 24, "componentType" : 5126, "count" : 364, "type" : "VEC2", "max" : [1, 1], "min" : [0, 0], "name" : "TEXCOORD_0"}], "asset" : {"generator" : "Aspose.3D 23.9.0", "version" : "2.0"}, "buffers" : [{"uri" : "data:application/octet-stream;base64,", "byteLength" : 12656}], "bufferViews" : [{"buffer" : 0, "byteOffset" : 0, "byteLength" : 744, "target" : 34963}, {"buffer" : 0, "byteOffset" : 748, "byteLength" : 11904, "byteStride" : 32, "target" : 34962}], "materials" : [{"name" : "_12015798", "pbrMetallicRoughness" : {"baseColorFactor" : [0, 0, 0, 1], "metallicFactor" : 0, "roughnessFactor" : 0.800000011920929}, "emissiveFactor" : [0, 0, 0], "alphaMode" : "OPAQUE", "doubleSided" : true}], "meshes" : [{"primitives" : [{"attributes" : {"POSITION" : 1, "NORMAL" : 2, "TEXCOORD_0" : 3}, "indices" : 0, "material" : 0, "mode" : 4}]}], "nodes" : [{"matrix" : [-1, 0, 8.742277657347586E-08, 0, 0, 1, 0, 0, -8.742277657347586E-08, 0, -1, 0, 0, 0, 0, 1], "mesh" : 0, "name" : "_12015798_IndexedFaceSet"}], "scene" : 0, "scenes" : [{"nodes" : [0]}]}