{
    "asset" : {
        "generator" : "Khronos glTF Blender I/O v1.3.48",
        "version" : "2.0"
    },
    "scene" : 0,
    "scenes" : [
        {
            "name" : "Scene",
            "nodes" : [
                0,
                1,
                2,
                3,
                4,
                5,
                6
            ]
        }
    ],
    "nodes" : [
        {
            "name" : "Light",
            "rotation" : [
                0.16907575726509094,
                0.7558803558349609,
                -0.27217137813568115,
                0.570947527885437
            ],
            "translation" : [
                -0.005590096116065979,
                3.699115753173828,
                3.9929065704345703
            ]
        },
        {
            "name" : "Camera",
            "rotation" : [
                0.6842882037162781,
                0,
                0,
                0.7292117476463318
            ],
            "translation" : [
                -0.0011081509292125702,
                3.3983089923858643,
                15.825790405273438
            ]
        },
        {
            "name" : "Light.001",
            "rotation" : [
                0.16907575726509094,
                0.7558803558349609,
                -0.27217137813568115,
                0.570947527885437
            ],
            "translation" : [
                -4.385856628417969,
                4.386373996734619,
                8.503092765808105
            ]
        },
        {
            "name" : "Light.002",
            "rotation" : [
                0.16907575726509094,
                0.7558803558349609,
                -0.27217137813568115,
                0.570947527885437
            ],
            "translation" : [
                3.923334836959839,
                4.386373996734619,
                8.503092765808105
            ]
        },
        {
            "mesh" : 0,
            "name" : "glass",
            "scale" : [
                1.6378653049468994,
                1.4222928285598755,
                1.4222928285598755
            ],
            "translation" : [
                -0.0043565030209720135,
                4.790593147277832,
                -0.016098737716674805
            ]
        },
        {
            "mesh" : 1,
            "name" : "kiosk",
            "rotation" : [
                0.7071068286895752,
                0,
                0,
                0.7071067094802856
            ]
        },
        {
            "mesh" : 2,
            "name" : "glass_image",
            "scale" : [
                1.6390000581741333,
                1.4222928285598755,
                1.4222928285598755
            ],
            "translation" : [
                -0.0043565030209720135,
                4.790593147277832,
                -0.015574393793940544
            ]
        }
    ],
    "materials" : [
        {
            "alphaMode" : "BLEND",
            "doubleSided" : true,
            "emissiveFactor" : [
                0,
                0,
                0
            ],
            "name" : "Glass Blue",
            "pbrMetallicRoughness" : {
                "baseColorFactor" : [
                    0,
                    0.7192712426185608,
                    0.8000000715255737,
                    0.3499999940395355
                ],
                "metallicFactor" : 0,
                "roughnessFactor" : 0.5
            }
        },
        {
            "doubleSided" : true,
            "emissiveFactor" : [
                0,
                0,
                0
            ],
            "name" : "Black.003",
            "pbrMetallicRoughness" : {
                "baseColorFactor" : [
                    0,
                    0,
                    0,
                    1
                ],
                "metallicFactor" : 0.5,
                "roughnessFactor" : 0.7487671971321106
            }
        },
        {
            "doubleSided" : true,
            "emissiveFactor" : [
                0,
                0,
                0
            ],
            "name" : "Red.003",
            "pbrMetallicRoughness" : {
                "baseColorFactor" : [
                    0.6869999766349792,
                    0.07900500297546387,
                    0.07900500297546387,
                    1
                ],
                "metallicFactor" : 0.5,
                "roughnessFactor" : 0.7487671971321106
            }
        },
        {
            "doubleSided" : true,
            "emissiveFactor" : [
                0,
                0,
                0
            ],
            "name" : "Middlewhite.003",
            "pbrMetallicRoughness" : {
                "baseColorFactor" : [
                    0.9031999707221985,
                    0.9031999707221985,
                    0.9031999707221985,
                    1
                ],
                "metallicFactor" : 0.6838709712028503,
                "roughnessFactor" : 0.7487671971321106
            }
        },
        {
            "doubleSided" : true,
            "emissiveFactor" : [
                0,
                0,
                0
            ],
            "name" : "Top_beige.003",
            "pbrMetallicRoughness" : {
                "baseColorFactor" : [
                    0.5509999990463257,
                    0.4171106219291687,
                    0.2931320071220398,
                    1
                ],
                "metallicFactor" : 0.5,
                "roughnessFactor" : 0.8532866835594177
            }
        },
        {
            "alphaMode" : "BLEND",
            "doubleSided" : true,
            "emissiveFactor" : [
                0,
                0,
                0
            ],
            "name" : "Material",
            "pbrMetallicRoughness" : {
                "baseColorTexture" : {
                    "index" : 0,
                    "texCoord" : 0
                },
                "metallicFactor" : 0,
                "roughnessFactor" : 0.5
            }
        }
    ],
    "meshes" : [
        {
            "name" : "Cube",
            "primitives" : [
                {
                    "attributes" : {
                        "POSITION" : 0,
                        "NORMAL" : 1,
                        "TEXCOORD_0" : 2
                    },
                    "indices" : 3,
                    "material" : 0
                }
            ]
        },
        {
            "name" : "Mesh.004",
            "primitives" : [
                {
                    "attributes" : {
                        "POSITION" : 4,
                        "NORMAL" : 5,
                        "TEXCOORD_0" : 6
                    },
                    "indices" : 7,
                    "material" : 1
                },
                {
                    "attributes" : {
                        "POSITION" : 8,
                        "NORMAL" : 9,
                        "TEXCOORD_0" : 10
                    },
                    "indices" : 11,
                    "material" : 2
                },
                {
                    "attributes" : {
                        "POSITION" : 12,
                        "NORMAL" : 13,
                        "TEXCOORD_0" : 14
                    },
                    "indices" : 15,
                    "material" : 3
                },
                {
                    "attributes" : {
                        "POSITION" : 16,
                        "NORMAL" : 17,
                        "TEXCOORD_0" : 18
                    },
                    "indices" : 19,
                    "material" : 4
                }
            ]
        },
        {
            "name" : "Cube.001",
            "primitives" : [
                {
                    "attributes" : {
                        "POSITION" : 20,
                        "NORMAL" : 21,
                        "TEXCOORD_0" : 22
                    },
                    "indices" : 23,
                    "material" : 5
                }
            ]
        }
    ],
    "textures" : [
        {
            "source" : 0
        }
    ],
    "images" : [
        {
            "bufferView" : 24,
            "mimeType" : "image/png",
            "name" : "Test_02.0057"
        }
    ],
    "accessors" : [
        {
            "bufferView" : 0,
            "componentType" : 5126,
            "count" : 24,
            "max" : [
                1,
                1.1755012273788452,
                0.0248795747756958
            ],
            "min" : [
                -0.9999999403953552,
                -1,
                -1.1920928955078125e-07
            ],
            "type" : "VEC3"
        },
        {
            "bufferView" : 1,
            "componentType" : 5126,
            "count" : 24,
            "type" : "VEC3"
        },
        {
            "bufferView" : 2,
            "componentType" : 5126,
            "count" : 24,
            "type" : "VEC2"
        },
        {
            "bufferView" : 3,
            "componentType" : 5123,
            "count" : 36,
            "type" : "SCALAR"
        },
        {
            "bufferView" : 4,
            "componentType" : 5126,
            "count" : 4998,
            "max" : [
                1.7578486204147339,
                1.116162657737732,
                -0.010917425155639648
            ],
            "min" : [
                -1.7578486204147339,
                -0.7967969179153442,
                -2.386218547821045
            ],
            "type" : "VEC3"
        },
        {
            "bufferView" : 5,
            "componentType" : 5126,
            "count" : 4998,
            "type" : "VEC3"
        },
        {
            "bufferView" : 6,
            "componentType" : 5126,
            "count" : 4998,
            "type" : "VEC2"
        },
        {
            "bufferView" : 7,
            "componentType" : 5123,
            "count" : 15648,
            "type" : "SCALAR"
        },
        {
            "bufferView" : 8,
            "componentType" : 5126,
            "count" : 294,
            "max" : [
                0.8775133490562439,
                1.044191598892212,
                -1.8289003372192383
            ],
            "min" : [
                0.6686044335365295,
                1.0085253715515137,
                -1.9390934705734253
            ],
            "type" : "VEC3"
        },
        {
            "bufferView" : 9,
            "componentType" : 5126,
            "count" : 294,
            "type" : "VEC3"
        },
        {
            "bufferView" : 10,
            "componentType" : 5126,
            "count" : 294,
            "type" : "VEC2"
        },
        {
            "bufferView" : 11,
            "componentType" : 5123,
            "count" : 786,
            "type" : "SCALAR"
        },
        {
            "bufferView" : 12,
            "componentType" : 5126,
            "count" : 446,
            "max" : [
                1.6841442584991455,
                1.0254508256912231,
                -0.8401380181312561
            ],
            "min" : [
                -1.6841442584991455,
                -0.7780381441116333,
                -3.07544207572937
            ],
            "type" : "VEC3"
        },
        {
            "bufferView" : 13,
            "componentType" : 5126,
            "count" : 446,
            "type" : "VEC3"
        },
        {
            "bufferView" : 14,
            "componentType" : 5126,
            "count" : 446,
            "type" : "VEC2"
        },
        {
            "bufferView" : 15,
            "componentType" : 5123,
            "count" : 2136,
            "type" : "SCALAR"
        },
        {
            "bufferView" : 16,
            "componentType" : 5126,
            "count" : 1113,
            "max" : [
                1.760450839996338,
                1.0980379581451416,
                -3.075441598892212
            ],
            "min" : [
                -1.760450839996338,
                -0.8219985365867615,
                -3.388343334197998
            ],
            "type" : "VEC3"
        },
        {
            "bufferView" : 17,
            "componentType" : 5126,
            "count" : 1113,
            "type" : "VEC3"
        },
        {
            "bufferView" : 18,
            "componentType" : 5126,
            "count" : 1113,
            "type" : "VEC2"
        },
        {
            "bufferView" : 19,
            "componentType" : 5123,
            "count" : 5820,
            "type" : "SCALAR"
        },
        {
            "bufferView" : 20,
            "componentType" : 5126,
            "count" : 4,
            "max" : [
                1,
                1.1755012273788452,
                0.0248795747756958
            ],
            "min" : [
                -0.9999999403953552,
                -1,
                0.0248795747756958
            ],
            "type" : "VEC3"
        },
        {
            "bufferView" : 21,
            "componentType" : 5126,
            "count" : 4,
            "type" : "VEC3"
        },
        {
            "bufferView" : 22,
            "componentType" : 5126,
            "count" : 4,
            "type" : "VEC2"
        },
        {
            "bufferView" : 23,
            "componentType" : 5123,
            "count" : 6,
            "type" : "SCALAR"
        }
    ],
    "bufferViews" : [
        {
            "buffer" : 0,
            "byteLength" : 288,
            "byteOffset" : 0
        },
        {
            "buffer" : 0,
            "byteLength" : 288,
            "byteOffset" : 288
        },
        {
            "buffer" : 0,
            "byteLength" : 192,
            "byteOffset" : 576
        },
        {
            "buffer" : 0,
            "byteLength" : 72,
            "byteOffset" : 768
        },
        {
            "buffer" : 0,
            "byteLength" : 59976,
            "byteOffset" : 840
        },
        {
            "buffer" : 0,
            "byteLength" : 59976,
            "byteOffset" : 60816
        },
        {
            "buffer" : 0,
            "byteLength" : 39984,
            "byteOffset" : 120792
        },
        {
            "buffer" : 0,
            "byteLength" : 31296,
            "byteOffset" : 160776
        },
        {
            "buffer" : 0,
            "byteLength" : 3528,
            "byteOffset" : 192072
        },
        {
            "buffer" : 0,
            "byteLength" : 3528,
            "byteOffset" : 195600
        },
        {
            "buffer" : 0,
            "byteLength" : 2352,
            "byteOffset" : 199128
        },
        {
            "buffer" : 0,
            "byteLength" : 1572,
            "byteOffset" : 201480
        },
        {
            "buffer" : 0,
            "byteLength" : 5352,
            "byteOffset" : 203052
        },
        {
            "buffer" : 0,
            "byteLength" : 5352,
            "byteOffset" : 208404
        },
        {
            "buffer" : 0,
            "byteLength" : 3568,
            "byteOffset" : 213756
        },
        {
            "buffer" : 0,
            "byteLength" : 4272,
            "byteOffset" : 217324
        },
        {
            "buffer" : 0,
            "byteLength" : 13356,
            "byteOffset" : 221596
        },
        {
            "buffer" : 0,
            "byteLength" : 13356,
            "byteOffset" : 234952
        },
        {
            "buffer" : 0,
            "byteLength" : 8904,
            "byteOffset" : 248308
        },
        {
            "buffer" : 0,
            "byteLength" : 11640,
            "byteOffset" : 257212
        },
        {
            "buffer" : 0,
            "byteLength" : 48,
            "byteOffset" : 268852
        },
        {
            "buffer" : 0,
            "byteLength" : 48,
            "byteOffset" : 268900
        },
        {
            "buffer" : 0,
            "byteLength" : 32,
            "byteOffset" : 268948
        },
        {
            "buffer" : 0,
            "byteLength" : 12,
            "byteOffset" : 268980
        },
        {
            "buffer" : 0,
            "byteLength" : 124982,
            "byteOffset" : 268992
        }
    ],
    "buffers" : [
        {
            "byteLength" : 393976,
            "uri" : "data:application/octet-stream;base64,"
        }
    ]
}
